<svg width="1000" height="1000" viewBox="0 0 1000 1000" fill="none" xmlns="http://www.w3.org/2000/svg">
  <rect width="1000" height="1000" fill="#091734"/>
  <g clip-path="url(#clip0)">
    <path d="M748.48 496.35V803.56C748.48 838.54 719.06 866.89 682.78 866.89C646.49 866.89 617.08 838.54 617.08 803.56V651.35C617.08 625.31 631.85 601.41 655.31 590.1C692.65 572.09 727.58 543.18 748.49 496.34L748.48 496.35ZM386.43 284.32C386.43 246.71 355.94 216.22 318.33 216.22H255V866.89H386.43C386.43 716.89 386.43 418.47 386.43 284.32Z" fill="url(#paint0)"/>
    <path d="M748.49 371.56C748.49 371.56 748.49 380.19 748.49 378.14C753.94 380.21 808.47 400.93 813.92 403L715.56 200.51L682.77 133L551.62 402.99L617.05 378.13C617.05 380.18 617.05 371.55 617.05 371.55C617.05 456.67 569.24 460.03 478.93 470.67C346.41 486.29 255 555.77 255 694.74C255 694.74 255 862.64 255 866.9H386.43C386.43 862.65 386.43 732.52 386.43 694.75C386.43 616.97 462.82 604.31 478.93 602.12C512.44 597.55 748.49 609.2 748.49 371.57V371.56Z" fill="url(#paint1)"/>
    <path d="M730.6 371.57V352C734.57 353.5 774.26 368.55 778.22 370.05L692.37 193.68V371.58C692.37 534 546.52 540 478.92 546.02C415.66 551.65 330.32 582.9 330.32 694.76C330.32 694.76 330.32 845.63 330.32 849.01H368.54C368.54 845.63 368.54 694.75 368.54 694.75C368.54 597.08 445.26 586.43 478.93 584.23C653.56 572.82 730.6 510.6 730.6 371.57Z" fill="#091734"/>
    <path d="M673.17 371.6C673.17 371.6 673.17 211.13 673.17 193.69C666.02 208.39 594.48 355.36 587.32 370.06L634.94 352.01V371.57C634.94 476.37 584.22 478.98 478.94 488.58C373.66 498.18 272.89 560.32 272.89 694.74C272.89 694.74 272.89 845.62 272.89 849.01H311.11C311.11 845.63 311.11 694.77 311.11 694.77C311.11 575.25 402.67 531.47 478.92 526.82C603.93 519.2 673.16 489.09 673.16 371.6H673.17Z" fill="#091734"/>
  </g>
  <defs>
    <linearGradient id="paint0" x1="501.74" y1="216.22" x2="501.74" y2="866.89" gradientUnits="userSpaceOnUse">
      <stop stop-color="#4CF7F1"/>
      <stop offset="1" stop-color="#3D249A"/>
    </linearGradient>
    <linearGradient id="paint1" x1="396.79" y1="439.45" x2="623.62" y2="629.79" gradientUnits="userSpaceOnUse">
      <stop stop-color="#4CF7F1"/>
      <stop offset="0.1" stop-color="#4BECEC"/>
      <stop offset="0.27" stop-color="#49CFE0"/>
      <stop offset="0.5" stop-color="#45A1CD"/>
      <stop offset="0.76" stop-color="#4162B3"/>
      <stop offset="1" stop-color="#3D249A"/>
    </linearGradient>
    <clipPath id="clip0">
      <rect width="558.93" height="733.89" fill="white" transform="translate(255 133)"/>
    </clipPath>
  </defs>
</svg>
